<svg width="50" height="50" viewBox="0 0 50 50" fill="none" xmlns="http://www.w3.org/2000/svg">
<path id="Vector" d="M48.4309 10.9309L39.0691 1.56908C38.0644 0.564424 36.7018 7.42942e-06 35.281 0H5.35714C2.39844 0 0 2.39844 0 5.35714V44.6429C0 47.6016 2.39844 50 5.35714 50H44.6429C47.6016 50 50 47.6016 50 44.6429V14.719C50 13.2982 49.4356 11.9356 48.4309 10.9309ZM25 42.8571C21.0551 42.8571 17.8571 39.6592 17.8571 35.7143C17.8571 31.7694 21.0551 28.5714 25 28.5714C28.9449 28.5714 32.1429 31.7694 32.1429 35.7143C32.1429 39.6592 28.9449 42.8571 25 42.8571ZM35.7143 8.87054V20.0893C35.7143 20.8289 35.1146 21.4286 34.375 21.4286H8.48214C7.74252 21.4286 7.14286 20.8289 7.14286 20.0893V8.48214C7.14286 7.74252 7.74252 7.14286 8.48214 7.14286H33.9866C34.3419 7.14286 34.6825 7.28393 34.9336 7.53516L35.322 7.92355C35.4464 8.04789 35.545 8.19553 35.6124 8.35801C35.6797 8.5205 35.7143 8.69466 35.7143 8.87054Z" fill="url(#paint0_angular_53_1856)"/>
<defs>
<radialGradient id="paint0_angular_53_1856" cx="0" cy="0" r="1" gradientUnits="userSpaceOnUse" gradientTransform="translate(25 25) rotate(90) scale(25)">
<stop offset="0.256429" stop-color="#3182A5"/>
<stop offset="0.923456" stop-color="#64F6FF"/>
</radialGradient>
</defs>
</svg>
