<svg width="30" height="30" viewBox="0 0 30 30" fill="none" xmlns="http://www.w3.org/2000/svg">
<path id="Vector" d="M15 0C6.71371 0 0 6.71371 0 15C0 23.2863 6.71371 30 15 30C23.2863 30 30 23.2863 30 15C30 6.71371 23.2863 0 15 0ZM14.0323 19.8387C14.0323 20.371 13.5968 20.8065 13.0645 20.8065H10.1613C9.62903 20.8065 9.19355 20.371 9.19355 19.8387V10.1613C9.19355 9.62903 9.62903 9.19355 10.1613 9.19355H13.0645C13.5968 9.19355 14.0323 9.62903 14.0323 10.1613V19.8387ZM20.8065 19.8387C20.8065 20.371 20.371 20.8065 19.8387 20.8065H16.9355C16.4032 20.8065 15.9677 20.371 15.9677 19.8387V10.1613C15.9677 9.62903 16.4032 9.19355 16.9355 9.19355H19.8387C20.371 9.19355 20.8065 9.62903 20.8065 10.1613V19.8387Z" fill="url(#paint0_angular_53_1862)"/>
<defs>
<radialGradient id="paint0_angular_53_1862" cx="0" cy="0" r="1" gradientUnits="userSpaceOnUse" gradientTransform="translate(15 15) rotate(90) scale(15)">
<stop offset="0.256429" stop-color="#3182A5"/>
<stop offset="0.923456" stop-color="#64F6FF"/>
</radialGradient>
</defs>
</svg>
