<svg width="31" height="30" viewBox="0 0 31 30" fill="none" xmlns="http://www.w3.org/2000/svg">
<path id="Vector" d="M15.8755 0C7.5892 0 0.875488 6.71371 0.875488 15C0.875488 23.2863 7.5892 30 15.8755 30C24.1618 30 30.8755 23.2863 30.8755 15C30.8755 6.71371 24.1618 0 15.8755 0ZM24.5852 16.6935C24.5852 17.0927 24.2586 17.4194 23.8594 17.4194H18.2948V22.9839C18.2948 23.3831 17.9682 23.7097 17.569 23.7097H14.1819C13.7827 23.7097 13.4561 23.3831 13.4561 22.9839V17.4194H7.89162C7.49242 17.4194 7.16581 17.0927 7.16581 16.6935V13.3065C7.16581 12.9073 7.49242 12.5806 7.89162 12.5806H13.4561V7.01613C13.4561 6.61694 13.7827 6.29032 14.1819 6.29032H17.569C17.9682 6.29032 18.2948 6.61694 18.2948 7.01613V12.5806H23.8594C24.2586 12.5806 24.5852 12.9073 24.5852 13.3065V16.6935Z" fill="url(#paint0_angular_5_11209)"/>
<defs>
<radialGradient id="paint0_angular_5_11209" cx="0" cy="0" r="1" gradientUnits="userSpaceOnUse" gradientTransform="translate(15.8755 15) rotate(90) scale(15)">
<stop offset="0.223958" stop-color="#31A574"/>
<stop offset="0.953125" stop-color="#64FFBE"/>
</radialGradient>
</defs>
</svg>
