<svg width="31" height="30" viewBox="0 0 31 30" fill="none" xmlns="http://www.w3.org/2000/svg">
<path id="Vector" d="M15.5 0C7.21371 0 0.5 6.71371 0.5 15C0.5 23.2863 7.21371 30 15.5 30C23.7863 30 30.5 23.2863 30.5 15C30.5 6.71371 23.7863 0 15.5 0ZM24.2097 16.6935C24.2097 17.0927 23.8831 17.4194 23.4839 17.4194H17.9194V22.9839C17.9194 23.3831 17.5927 23.7097 17.1935 23.7097H13.8065C13.4073 23.7097 13.0806 23.3831 13.0806 22.9839V17.4194H7.51613C7.11694 17.4194 6.79032 17.0927 6.79032 16.6935V13.3065C6.79032 12.9073 7.11694 12.5806 7.51613 12.5806H13.0806V7.01613C13.0806 6.61694 13.4073 6.29032 13.8065 6.29032H17.1935C17.5927 6.29032 17.9194 6.61694 17.9194 7.01613V12.5806H23.4839C23.8831 12.5806 24.2097 12.9073 24.2097 13.3065V16.6935Z" fill="url(#paint0_angular_8_13740)"/>
<defs>
<radialGradient id="paint0_angular_8_13740" cx="0" cy="0" r="1" gradientUnits="userSpaceOnUse" gradientTransform="translate(15.5 15) rotate(90) scale(15)">
<stop offset="0.256429" stop-color="#3182A5"/>
<stop offset="0.923456" stop-color="#64F6FF"/>
</radialGradient>
</defs>
</svg>
